<?xml version="1.0" standalone="no"?>
<!DOCTYPE svg PUBLIC "-//W3C//DTD SVG 20010904//EN"
 "http://www.w3.org/TR/2001/REC-SVG-20010904/DTD/svg10.dtd">
<svg version="1.0" xmlns="http://www.w3.org/2000/svg"
 width="172.000000pt" height="124.000000pt" viewBox="0 0 172.000000 124.000000"
 preserveAspectRatio="xMidYMid meet">

<g transform="translate(0.000000,124.000000) scale(0.100000,-0.100000)"
fill="#000000" stroke="none">
<path d="M768 1082 c-155 -82 -300 -175 -319 -205 -17 -29 -19 -52 -19 -230 0
-225 5 -248 68 -290 20 -14 98 -60 172 -103 187 -109 183 -109 400 17 113 66
172 107 188 129 21 32 22 42 22 240 0 199 -1 208 -23 241 -16 25 -69 61 -192
132 -193 110 -210 114 -297 69z m292 -89 c210 -121 200 -104 200 -353 0 -188
-1 -199 -22 -230 -16 -23 -74 -62 -188 -127 -148 -85 -169 -94 -204 -90 -55 8
-344 175 -373 217 -22 31 -23 42 -23 230 0 188 1 199 23 230 20 29 136 103
306 196 72 39 103 31 281 -73z"/>
<path d="M815 1046 c-71 -31 -282 -159 -308 -187 l-28 -31 3 -193 c3 -171 5
-195 21 -213 10 -11 87 -60 170 -108 110 -63 161 -87 184 -87 40 1 323 162
353 200 18 24 20 41 20 214 l0 189 -27 30 c-31 33 -317 200 -342 200 -9 -1
-30 -7 -46 -14z m15 -85 c6 -12 10 -112 10 -254 0 -188 -3 -237 -14 -246 -9
-8 -60 -11 -157 -9 l-144 3 0 105 c0 95 2 105 19 108 27 6 36 -15 36 -90 l0
-68 100 0 100 0 0 190 c0 105 -2 190 -5 190 -3 0 -23 -9 -45 -20 -47 -24 -69
-25 -77 -4 -8 20 12 39 83 80 69 39 80 41 94 15z m220 -59 l135 -78 0 -184 c0
-173 -1 -185 -19 -188 -27 -6 -36 15 -36 91 l0 67 -100 0 -99 0 -3 -77 c-3
-67 -6 -78 -22 -81 -10 -2 -22 2 -27 10 -13 19 -11 475 1 499 6 10 16 19 23
19 7 0 73 -35 147 -78z"/>
<path d="M930 786 l0 -116 100 0 100 0 0 58 0 58 -77 44 c-43 24 -88 50 -100
58 l-23 14 0 -116z"/>
</g>
</svg>
